<svg preserveAspectRatio="none" width="100%" height="100%" overflow="visible" style="display: block;" viewBox="0 0 74.0596 14.8733" fill="none" xmlns="http://www.w3.org/2000/svg">
<g id="Logo Nam A Bank">
<path id="Union" d="M35.9648 14.8732L35.5283 14.8526L35.5107 14.4396H36.0039L35.9648 14.8732ZM47.458 14.8732L47.0215 14.8526L47.0039 14.4396H47.4971L47.458 14.8732ZM57.9258 14.8732L57.4893 14.8526L57.4717 14.4396H57.9639L57.9258 14.8732ZM37.4824 11.8351C37.5947 11.7891 38.6442 11.7965 38.8057 11.8233C39.5363 11.9465 39.5606 13.3283 39.2275 13.7862C39.1693 13.8656 38.8952 14.0712 38.8154 14.0714H37.8301L37.7686 14.1329V14.8517C37.6186 14.7811 37.3469 14.924 37.3174 14.7482L37.3389 11.9786C37.3499 11.9531 37.4572 11.8454 37.4824 11.8351ZM28.2275 11.8155C28.4698 11.7825 29.2173 11.7789 29.458 11.8107C29.6231 11.8325 29.7049 11.9619 29.7236 12.1192C29.7721 12.5277 29.7727 13.8049 29.7119 14.2032C29.6738 14.4529 29.5333 14.6755 29.2939 14.7706C29.2593 14.7841 29.0233 14.8497 29.0049 14.8507H27.7109V14.4806H28.9219C29.1135 14.4806 29.3343 14.0704 29.168 14.0704H28.1416C28.068 14.0696 27.8054 13.8809 27.752 13.8038C27.3973 13.2897 27.4211 11.9256 28.2275 11.8155ZM11.5146 11.8107C11.751 11.779 12.5107 11.7808 12.75 11.8107C12.9892 11.8405 13.0392 12.0248 13.0576 12.2413C13.0936 12.67 13.0856 13.3705 13.0576 13.8048C13.0329 14.1906 12.9831 14.6458 12.5645 14.7892C12.536 14.799 12.3131 14.8491 12.2969 14.8497H11.0039L11.042 14.4982C11.4908 14.3671 12.5126 14.7651 12.5225 14.0694C12.2216 14.021 11.7059 14.1357 11.4346 14.0704C11.3953 14.0608 11.1345 13.8851 11.0928 13.838C10.8285 13.537 10.8136 12.6354 10.9541 12.2765C11.0457 12.0429 11.2603 11.8449 11.5146 11.8107ZM56.2422 11.8126C56.2492 11.8681 56.2304 11.9173 56.2139 11.9689C56.0477 12.4786 55.7044 13.2788 55.4697 13.7696C55.3007 14.123 55.0545 14.2747 54.7285 13.961L53.8613 11.8126L54.3477 11.8175C54.5777 12.3451 54.7254 12.9577 54.9717 13.4728C54.9922 13.5163 54.996 13.5943 55.0713 13.5773C55.1642 13.5537 55.6798 12.0269 55.7539 11.8175L56.2422 11.8126ZM63.499 11.7833C63.8259 11.7495 64.3647 11.7845 64.6367 11.9767C65.0587 12.274 65.0643 13.3401 64.7998 13.7403C64.4792 14.2245 63.2727 14.2179 62.8545 13.8819C62.444 13.5522 62.4419 12.6925 62.6504 12.2482C62.8061 11.916 63.164 11.818 63.499 11.7833ZM7.7041 11.0401C8.18071 10.9319 8.28613 11.1555 8.5127 11.4864C8.92016 12.082 9.27286 12.7251 9.66699 13.3302L9.80957 13.3712V11.0724H10.3428V13.7618C10.3424 14.1611 9.71759 14.2189 9.48535 13.963L8.10449 11.8136L7.96191 11.7706V14.0694H7.42871V11.2579C7.42871 11.2254 7.6396 11.0548 7.7041 11.0401ZM43.9541 11.0821C44.1959 11.0284 45.3463 11.0452 45.624 11.0782C46.509 11.1837 46.5724 12.2408 46.5127 12.9425C46.4699 13.4429 46.2352 14.0027 45.6699 14.0714C45.3437 14.111 44.3053 14.1152 43.9844 14.0724C43.8137 14.0495 43.7379 13.8809 43.7188 13.7218C43.6607 13.2419 43.6627 11.8631 43.7188 11.381C43.7354 11.2397 43.8063 11.1149 43.9541 11.0821ZM31.7139 11.0724C32.0226 11.0359 33.253 11.0378 33.5088 11.1251C33.9996 11.2935 34.1677 11.7601 34.2002 12.2403C34.2447 12.8929 34.1907 13.9686 33.3574 14.0704C33.0257 14.1109 32.0442 14.1116 31.7129 14.0714C31.6353 14.0618 31.5575 14.0271 31.5029 13.9728C31.302 13.771 31.4596 13.1081 31.4014 12.8233L31.3398 12.7618L31.0371 12.756L31.0752 12.4044L31.3398 12.381L31.4014 12.3185C31.4796 11.9665 31.2012 11.1328 31.7139 11.0724ZM49.8789 12.1407H48.9971C48.3675 12.1407 48.2858 13.2591 48.6455 13.6007C48.6734 13.6274 48.8595 13.7413 48.874 13.7413H49.9619C49.9528 13.8175 49.9998 14.0839 49.9014 14.1007C49.3985 13.9653 48.5457 14.2746 48.1777 13.8224C47.8696 13.443 47.8667 12.2186 48.3047 11.9415C48.332 11.924 48.5696 11.8131 48.5859 11.8126H49.8789V12.1407ZM57.0186 13.3937C57.0192 13.5242 57.2825 13.7166 57.4111 13.7394C57.5257 13.7593 58.1668 13.7774 58.168 13.6398V11.8126H58.6611V13.8448C58.6608 13.9604 58.4696 14.0622 58.3555 14.0733C58.0779 14.1005 57.3949 14.1033 57.125 14.0665C56.689 14.0071 56.5305 13.6773 56.5264 13.2696C56.5256 13.1923 56.5692 13.1125 56.5693 13.0255C56.5677 12.6214 56.566 12.2165 56.5664 11.8126H57.0186V13.3937ZM35.0488 11.9064C35.5099 11.6805 36.6021 11.6837 36.8008 12.2667C36.8538 12.4223 36.8849 13.086 36.6387 13.086H35.2021C35.0663 13.086 35.1867 13.5293 35.2832 13.6212C35.3058 13.6424 35.4773 13.7433 35.4893 13.7433L36.7822 13.7423L36.7764 14.004L36.7148 14.0655C36.2535 14.0272 35.6479 14.1381 35.2051 14.0685C34.6078 13.9741 34.6113 13.1565 34.6465 12.6944C34.6699 12.3883 34.7552 12.0505 35.0488 11.9064ZM24.1182 11.8126C24.2079 11.8126 24.4512 12.1166 24.4688 12.2413C24.5098 12.5419 24.5047 13.4962 24.4688 13.8048C24.457 13.9048 24.4285 13.9879 24.3447 14.0499C24.02 14.0297 22.8662 14.1611 22.6387 14.0314C22.3189 13.8478 22.3069 13.1013 22.5195 12.84C22.5654 12.7844 22.7516 12.6741 22.8047 12.6739H23.9541C24.1449 12.5156 23.8983 12.1408 23.708 12.1407H22.5381V11.8126H24.1182ZM15.209 11.8126C15.3532 11.8129 15.5754 12.1814 15.5957 12.3292C15.6322 12.598 15.6379 13.5405 15.5967 13.8009C15.5839 13.8813 15.5071 14.0156 15.4336 14.0489C15.3481 14.0858 14.0506 14.0936 13.8936 14.0724C13.2968 13.9911 13.399 12.6739 13.9365 12.6739H15.1055C15.1474 12.4858 15.0714 12.1407 14.8389 12.1407H13.6689V11.8126H15.209ZM66.0117 11.7501L66.0732 11.8116H66.71L66.6709 12.1222L66.0117 12.1817V13.3517C66.012 13.6181 66.4749 13.8026 66.71 13.7413L66.6924 14.0314C66.2783 14.1465 65.624 14.0908 65.5596 13.5577C65.521 13.2354 65.6346 12.4922 65.5537 12.2501C65.506 12.1076 65.2386 12.1657 65.2305 12.1173L65.2324 11.8116C65.3449 11.8043 65.483 11.8513 65.5605 11.7501V11.0733H66.0117V11.7501ZM16.3965 11.8107C16.6227 11.7808 17.4051 11.781 17.6279 11.8146C17.899 11.8557 18.1402 12.045 18.1807 12.3292C18.2393 12.7414 18.1712 13.3253 18.1826 13.7638C18.1845 13.8389 18.235 13.9574 18.2227 14.003C18.1888 14.1235 17.8382 14.0523 17.7324 14.0704V12.5714C17.7319 12.1207 16.9405 12.0712 16.624 12.1817V14.0089C16.5048 14.1287 16.2902 14.0492 16.1318 14.0704V12.0382C16.1318 11.9553 16.2992 11.8235 16.3965 11.8107ZM25.2646 11.8107C25.4912 11.7814 26.3134 11.7825 26.5293 11.8224C26.8 11.8727 27.0935 12.1142 27.0938 12.4073V14.0704H26.6006V12.4894C26.6002 12.326 26.3487 12.1757 26.2012 12.1505C26.0911 12.1321 25.4924 12.0979 25.4922 12.2433V14.0704C25.3806 14.0499 25.0462 14.128 25.0049 14.003C25.0235 13.4693 24.961 12.8927 24.998 12.3644C25.0132 12.1469 25.0095 11.8434 25.2646 11.8107ZM47.4961 14.0704H47.0039V11.8126H47.4961V14.0704ZM20.3223 11.7501L20.3838 11.8116H21.3691C21.3888 11.8116 21.6792 11.9606 21.7197 11.9952C21.7753 12.0428 21.9229 12.2811 21.9229 12.3253V14.0694H21.4307V12.4894C21.4305 12.3658 21.1455 12.1413 21.041 12.1407H20.3838L20.3223 12.2023V14.0694H19.8291V11.0733H20.3223V11.7501ZM50.8623 11.7501L50.9248 11.8116H51.9092C51.937 11.8116 52.2381 11.97 52.2812 12.0148C52.3527 12.0889 52.4639 12.3556 52.4639 12.4483V14.0694H51.9707V12.4894C51.9707 12.3735 51.6829 12.1399 51.5811 12.1398H50.9238L50.8623 12.2013V14.0694H50.3691V11.0733H50.8623V11.7501ZM62.5615 11.0733C62.5467 11.2084 62.6122 11.3858 62.5 11.4835H61.3916L61.3301 11.545V14.0694H60.7959V11.4835H59.6055V11.0733H62.5615ZM23.0508 13.0441C23.0369 13.0465 22.8961 13.1895 22.8877 13.2091C22.8244 13.3581 22.8723 13.6492 23.0312 13.7208C23.1634 13.7801 23.8869 13.7821 24.0156 13.6388V13.0441H23.0508ZM12.5117 12.1925C12.3956 12.0859 11.7876 12.1375 11.6309 12.214C11.2073 12.4208 11.2372 13.6361 11.7627 13.7423C11.9657 13.7831 12.2832 13.7125 12.502 13.7423L12.5635 13.6808V12.2843C12.5629 12.2656 12.5236 12.2181 12.5117 12.1925ZM64.3604 12.3761C64.205 12.1313 63.7598 12.097 63.4961 12.1505C62.8277 12.2869 62.899 13.62 63.4551 13.7325C63.6851 13.7789 64.1457 13.7679 64.3066 13.5763C64.5006 13.3447 64.5161 12.6212 64.3604 12.3761ZM14.1416 13.0441C14.0087 13.0441 13.8796 13.6028 14.1621 13.7208C14.2794 13.7696 15.1055 13.7813 15.1055 13.6388V13.0441H14.1416ZM28.5156 12.1446C28.0239 12.2142 27.9962 12.8159 28.0586 13.211C28.1037 13.4945 28.2057 13.6952 28.5117 13.7423C28.7073 13.7724 28.9645 13.7205 29.1689 13.7423L29.2305 13.6808V12.2442C29.2305 12.1039 28.6294 12.1287 28.5156 12.1446ZM38.6865 12.2296C38.5307 12.1399 37.8229 12.0665 37.7686 12.2442V13.6817L37.8301 13.7433H38.4873C38.5315 13.7431 38.7371 13.6278 38.7773 13.5812C38.9935 13.3303 39.0041 12.4121 38.6865 12.2296ZM33.2695 11.5714C33.0782 11.4648 32.31 11.4459 32.0928 11.4933C31.822 11.5526 31.9657 12.1221 31.958 12.3487L32.5303 12.3927C32.6319 12.4266 32.6078 12.6276 32.5791 12.7179L31.958 12.795C31.9616 12.9983 31.8323 13.6106 32.085 13.6583C32.2446 13.6881 32.7692 13.677 32.9482 13.6612C33.1719 13.6414 33.3496 13.5564 33.4785 13.3702C33.6967 13.0542 33.7128 12.1413 33.5176 11.8165C33.483 11.7593 33.327 11.6037 33.2695 11.5714ZM45.2949 11.4884C45.1426 11.4703 44.3805 11.4586 44.3037 11.5353L44.29 13.6017C44.329 13.6514 44.3784 13.6541 44.4355 13.6612C44.6702 13.6908 45.3165 13.6814 45.5254 13.5978C45.9451 13.4291 46.0056 12.7716 45.9658 12.378C45.9214 11.9357 45.79 11.547 45.2949 11.4884ZM42.2432 13.1085L40.7891 13.1212L40.7275 13.0597L40.7227 12.7159H42.2822L42.2432 13.1085ZM36.3662 12.5421C36.2879 11.9566 35.0208 11.9687 35.1396 12.7159H36.2686C36.309 12.7159 36.3744 12.6056 36.3662 12.5421ZM63.6592 10.836C63.9607 10.7684 64.334 11.2218 64.5703 11.3819L64.3486 11.6095L63.7715 11.1534C63.6058 11.1385 63.3079 11.5239 63.1514 11.6036C63.0981 11.6123 62.9081 11.4447 62.9502 11.3614C62.9747 11.3133 63.5955 10.8513 63.6592 10.836ZM23.29 10.7911L23.9268 11.3409C23.8567 11.4233 23.7633 11.6371 23.6348 11.6036C23.5249 11.5745 23.1749 11.1352 22.9912 11.1144C22.9685 11.0822 23.1918 10.7403 23.29 10.7911ZM14.5205 10.9571C14.661 10.9345 14.7921 11.0654 14.8984 11.1398C15.0834 11.269 15.4087 11.4668 15.0518 11.6036C14.941 11.5234 14.6766 11.2231 14.5557 11.2355C14.4038 11.2512 14.1479 11.6431 14.041 11.589C13.9902 11.5632 13.9013 11.4701 13.9355 11.4025C13.9595 11.3551 14.4614 10.9681 14.5205 10.9571ZM47.498 11.4435H47.0049C47.0175 11.3475 46.9681 11.1032 47.043 11.0509L47.498 11.0333V11.4435ZM65.1934 10.3976L64.4805 10.9483C64.4117 10.8814 64.22 10.7518 64.252 10.6485L64.8936 10.1358L65.1934 10.3976ZM22.2715 4.54698L22.4043 4.4337C23.0487 2.96913 23.6208 1.4672 24.3232 0.0313574H27.2588V7.338H25.2881V2.78136L23.1758 7.34093L21.4082 7.29698C20.8811 6.09799 20.3839 4.8827 19.8438 3.68956C19.7431 3.46698 19.5859 3.061 19.4697 2.87511C19.4431 2.83224 19.4716 2.80349 19.377 2.82237V7.338H17.4268L17.3652 7.27647V0.0928809L17.4268 0.0313574H20.3418L22.2715 4.54698ZM2.97656 0.032334C3.92098 1.46095 4.74479 2.96677 5.64844 4.42101C5.72358 4.54193 5.81897 4.72043 5.89941 4.82433C5.926 4.85866 5.89853 4.89849 5.99316 4.87608V0.032334H7.96387V7.33897H4.98828C4.66529 6.86363 4.36658 6.36679 4.07129 5.87413C3.49122 4.90576 2.94669 3.91235 2.3584 2.94933C2.28618 2.83103 2.1838 2.64821 2.10547 2.54698C2.07897 2.51265 2.10651 2.47267 2.01172 2.49522V7.33897H0V0.0938574L0.0615234 0.032334H2.97656ZM38.2197 7.33897H36.0635C35.8116 7.03595 35.7491 6.42817 35.5469 6.13194C35.5219 6.09529 35.5038 6.06388 35.4521 6.06847L32.5234 6.09288L31.959 7.33897H29.8037L32.6416 0.0381934L35.3271 0.0294043L38.2197 7.33897ZM56.4873 7.33897H54.332L53.8135 6.11339L50.8438 6.06651L50.7217 6.15147L50.2266 7.33897H48.0713L50.9092 0.0381934L53.5957 0.0294043L56.4873 7.33897ZM59.957 0.032334C60.957 1.61039 61.9309 3.20985 62.8516 4.83507C62.8831 4.85882 62.9746 4.79568 62.9746 4.77354V0.032334H64.9854V7.27745L64.9248 7.33897H61.9688L59.0127 2.45519L58.9307 7.33897H56.9805V0.032334H59.957ZM68.1074 0.0938574V2.94737L68.2305 2.88585L71.042 0.032334H73.6904L70.2812 3.58312L74.0596 7.33897H71.3301C70.5319 6.59211 69.7789 5.79509 68.9902 5.03917C68.7792 4.83638 68.4422 4.4836 68.2305 4.3214C68.1892 4.28973 68.1786 4.24308 68.1074 4.26085V7.27745L68.0449 7.33897H65.9727V0.032334H68.0449L68.1074 0.0938574ZM11.4287 0.0294043C12.2146 0.107214 13.1734 -0.0657063 13.9375 0.0294043C13.9825 0.0350021 14.029 0.0264964 14.0586 0.072373L16.9111 7.338H14.7148L14.1758 6.11241C13.3018 6.09162 12.4267 6.11996 11.5527 6.10851C11.4173 6.10664 11.3228 6.0227 11.1885 6.11144C11.039 6.21159 10.7841 7.12349 10.6719 7.338H8.45508L11.3076 0.072373L11.4287 0.0294043ZM40.8457 0.0313574C42.3695 0.0880765 43.9479 -0.0441271 45.4658 0.0294043C47.1274 0.109871 47.8959 0.706412 47.7012 2.47276C47.6559 2.88363 47.5216 3.19637 47.2471 3.50011L47.2686 3.56163C48.1461 4.08089 48.0557 5.97208 47.4951 6.65929C47.1982 7.02317 46.3742 7.33685 45.916 7.33702H40.8457V0.0313574ZM42.9395 5.59288L43.001 5.6544H45.4639C45.5809 5.6544 45.7568 5.43726 45.7744 5.30772C45.7902 5.18997 45.7882 4.80942 45.7637 4.69835C45.7447 4.61504 45.575 4.42296 45.5049 4.42296H42.9395V5.59288ZM33.0938 4.45226L33.1494 4.54796H34.873L34.9287 4.45323C34.5882 3.81404 34.4401 3.02195 34.1211 2.38487C34.0908 2.32434 34.0597 2.20701 33.9707 2.20714L33.0938 4.45226ZM51.3555 4.54796H53.1406L53.1973 4.45128L52.3486 2.30284L52.2383 2.20714L51.3555 4.54796ZM11.7803 4.54698H13.5244C13.5369 4.54698 13.5971 4.48661 13.5801 4.45323L12.7031 2.16612L11.7803 4.54698ZM42.9395 1.7755V2.82237L42.957 2.83702C43.1269 2.90164 44.4714 2.87108 44.6035 2.86534C44.7932 2.85708 45.1265 2.84523 45.2969 2.81944C45.4861 2.79068 45.5765 2.69505 45.6035 2.51085C45.6305 2.32343 45.6468 1.86595 45.4434 1.77647C45.4272 1.76925 45.1116 1.71397 45.0938 1.71397H43.001L42.9395 1.7755Z" fill="var(--fill-0, #0171BB)"/>
</g>
</svg>
