<svg width="33" height="32" viewBox="0 0 33 32" fill="none" xmlns="http://www.w3.org/2000/svg">
<path d="M17.7609 14.6857L17.2152 14.1396C15.1488 12.0738 15.1751 8.75199 17.2754 6.71949L23.3239 0.864492C24.0438 0.168481 25.0657 -0.134173 26.0565 0.0555644L26.1149 0.0666712C27.898 0.409123 28.5614 2.57768 27.2666 3.83179C25.2595 5.77451 23.2534 7.71723 21.2463 9.65995C20.9094 9.98667 20.9047 10.5198 21.2369 10.8521L21.2491 10.8641C21.5813 11.1954 22.1233 11.2001 22.4611 10.8733C22.8779 10.4698 23.2948 10.0663 23.7116 9.66273C25.124 8.2957 27.516 9.12869 27.739 11.0659C27.7409 11.0853 27.7437 11.1057 27.7456 11.1251C27.8274 11.8387 27.5715 12.5495 27.0521 13.0539C26.4696 13.6176 25.8881 14.1812 25.3056 14.7449C23.2063 16.7783 19.8273 16.7524 17.7609 14.6866V14.6857Z" fill="white"/>
<path opacity="0.7" d="M14.9304 14.1971L14.3752 14.7339C12.275 16.7664 8.89786 16.7405 6.83149 14.6747L0.878899 8.72524C0.171288 8.0172 -0.136409 7.01206 0.0564906 6.03746L0.0677818 5.98007C0.415941 4.22616 2.62063 3.57365 3.89565 4.84721C5.87075 6.8214 7.84584 8.79466 9.82094 10.7688C10.1531 11.1002 10.6951 11.1048 11.0329 10.7781L11.0451 10.7661C11.382 10.4394 11.3867 9.90624 11.0546 9.57397C10.6443 9.16395 10.234 8.75393 9.82377 8.34392C8.43395 6.95467 9.28083 4.60194 11.2503 4.38258C11.27 4.38073 11.2907 4.37795 11.3105 4.3761C12.036 4.29558 12.7587 4.54733 13.2715 5.05823C13.8445 5.63114 14.4176 6.20313 14.9906 6.77604C17.058 8.84094 17.0316 12.1646 14.9314 14.1971H14.9304Z" fill="white"/>
<path opacity="0.7" d="M17.2647 17.469L17.8199 16.9322C19.9201 14.8997 23.2973 14.9256 25.3637 16.9915L31.3163 22.9409C32.0239 23.6489 32.3316 24.6541 32.1387 25.6287L32.1274 25.686C31.7792 27.4399 29.5745 28.0925 28.2995 26.8189C26.3244 24.8447 24.3493 22.8714 22.3742 20.8973C22.042 20.5659 21.5 20.5613 21.1622 20.888L21.15 20.9C20.8131 21.2268 20.8084 21.7599 21.1406 22.0921C21.5508 22.5022 21.9611 22.9122 22.3714 23.3222C23.7612 24.7114 22.9143 27.0642 20.9449 27.2835C20.9251 27.2854 20.9044 27.2882 20.8846 27.29C20.1592 27.3705 19.4365 27.1188 18.9237 26.6079C18.3506 26.035 17.7776 25.463 17.2045 24.8901C15.1372 22.8252 15.1635 19.5015 17.2638 17.469H17.2647Z" fill="white"/>
<path d="M14.4353 16.981L14.981 17.5271C17.0474 19.5929 17.0211 22.9147 14.9208 24.9472L8.87225 30.8022C8.15241 31.4982 7.13051 31.8009 6.13967 31.6111L6.08133 31.6C4.29819 31.2576 3.6348 29.089 4.92958 27.8349C6.93667 25.8922 8.94282 23.9495 10.9499 22.0067C11.2868 21.68 11.2915 21.1469 10.9593 20.8146L10.9471 20.8026C10.6149 20.4713 10.0729 20.4666 9.73513 20.7934C9.31828 21.1969 8.90142 21.6004 8.48457 22.004C7.07217 23.371 4.68022 22.538 4.45721 20.6008C4.45533 20.5814 4.45251 20.561 4.45063 20.5416C4.36876 19.828 4.62471 19.1172 5.14412 18.6128C5.72659 18.0491 6.30811 17.4855 6.89057 16.9218C8.98988 14.8884 12.3689 14.9143 14.4353 16.9801V16.981Z" fill="white"/>
<path d="M15.1516 24.7097C13.3327 22.7179 13.3384 19.6933 15.1516 17.707C16.9705 19.6997 16.9639 22.7244 15.1516 24.7097Z" fill="white"/>
</svg>
